<svg width="56" height="56" viewBox="0 0 56 56" fill="none" xmlns="http://www.w3.org/2000/svg">
<path fill-rule="evenodd" clip-rule="evenodd" d="M28 0C12.536 0 0 12.536 0 28C0 43.464 12.536 56 28 56C43.464 56 56 43.464 56 28C56 12.536 43.464 0 28 0ZM36.35 9.5H19.95C14.2 9.5 9.5 14.2 9.5 19.95V36.35C9.5 42.1 14.2 46.8 19.95 46.8H36.35C42.1 46.8 46.8 42.1 46.8 36.35V19.95C46.8 14.2 42.1 9.5 36.35 9.5ZM36.25 12.8H20C16.05 12.8 12.8 16.05 12.8 20V36.25C12.8 40.2 16.05 43.45 20 43.45H36.25C40.2 43.45 43.45 40.2 43.45 36.25V20C43.45 16.05 40.2 12.8 36.25 12.8ZM28.1996 21.9002C31.5996 21.9002 34.3996 24.7002 34.3996 28.1002C34.3996 31.5002 31.5996 34.3002 28.1996 34.3002C24.7996 34.3002 21.9996 31.5002 21.9996 28.1002C21.9996 24.6502 24.7496 21.9002 28.1996 21.9002ZM28.1996 18.4502C33.4996 18.4502 37.7996 22.7502 37.7996 28.0502C37.7996 33.3502 33.4996 37.6502 28.1996 37.6502C22.8996 37.6502 18.5996 33.3502 18.5996 28.0502C18.5996 22.7502 22.8996 18.4502 28.1996 18.4502ZM40.2999 18.1502C40.2999 16.9502 39.3499 15.9502 38.0999 15.9502C36.8499 15.9502 35.8999 16.9502 35.8999 18.1502C35.8999 19.3502 36.8499 20.3502 38.0999 20.3502C39.2999 20.3502 40.2999 19.3502 40.2999 18.1502Z" fill="white"/>
</svg>
