<svg width="56" height="56" viewBox="0 0 56 56" fill="none" xmlns="http://www.w3.org/2000/svg">
<path fill-rule="evenodd" clip-rule="evenodd" d="M28 0C12.536 0 0 12.536 0 28C0 43.464 12.536 56 28 56C43.464 56 56 43.464 56 28C56 12.536 43.464 0 28 0ZM6.6958 14.6094C6.96128 31.3485 15.3237 41.392 29.7921 41.392H30.7213V31.8842C36.0308 32.4198 40.1456 36.3033 41.7385 41.392H49.3045C47.3134 33.7589 41.8712 29.6076 38.42 28.0007C41.7385 25.992 46.517 21.1711 47.7116 14.6094H40.8093C39.3492 19.9659 34.9689 24.7868 30.7213 25.1885V14.6094H23.8189V33.0894C19.5713 32.0181 14.2618 26.9294 13.9964 14.6094H6.6958Z" fill="white"/>
</svg>
